<svg xmlns="http://www.w3.org/2000/svg" viewBox="0 0 24.69 19"><defs><style>.cls-1{fill:#fe2e62;}</style></defs><title>Asset 7</title><g id="Layer_2" data-name="Layer 2"><g id="Layer_1-2" data-name="Layer 1"><path class="cls-1" d="M23.92,0H.78A.78.78,0,0,0,0,.78V16.2A.78.78,0,0,0,.78,17H14.43v1.5a.51.51,0,0,0,.24.44A.57.57,0,0,0,15,19a.59.59,0,0,0,.22-.05l1.47-.72,1.47.72a.53.53,0,0,0,.75-.47V17h5.06a.77.77,0,0,0,.77-.78V.78A.77.77,0,0,0,23.92,0ZM14.4,11.17a2.25,2.25,0,1,1,2.24,2.24A2.25,2.25,0,0,1,14.4,11.17Zm4.46,2.41a3.28,3.28,0,1,0-4.43,0v.35H5.28A2.79,2.79,0,0,0,3.05,11.7V5.28A2.79,2.79,0,0,0,5.28,3.05H19.41a2.79,2.79,0,0,0,2.23,2.23V11.7a2.79,2.79,0,0,0-2.23,2.23h-.55Zm-1,4.07-.95-.46a.51.51,0,0,0-.45,0l-1,.46V14.22a3.13,3.13,0,0,0,1.18.22,3.06,3.06,0,0,0,1.18-.22v3.43Zm5.32-2.22H18.86V15h1a.52.52,0,0,0,.52-.52,1.76,1.76,0,0,1,1.76-1.76.52.52,0,0,0,.52-.51V4.81a.52.52,0,0,0-.52-.51A1.76,1.76,0,0,1,20.4,2.54.52.52,0,0,0,19.88,2H4.81a.51.51,0,0,0-.51.52A1.76,1.76,0,0,1,2.54,4.3.51.51,0,0,0,2,4.81v7.36a.51.51,0,0,0,.52.51A1.76,1.76,0,0,1,4.3,14.44a.51.51,0,0,0,.51.52h9.62v.47H1.55V1.55H23.14Z"/></g></g></svg>