<svg xmlns="http://www.w3.org/2000/svg" viewBox="0 0 30 30"><defs><style>.cls-1{fill:#fe2e62;}</style></defs><title>Asset 5</title><g id="Layer_2" data-name="Layer 2"><g id="Layer_1-2" data-name="Layer 1"><path class="cls-1" d="M15,0A15,15,0,1,0,30,15,15,15,0,0,0,15,0Zm5,21.63-.69.68a1.42,1.42,0,0,0-.37.65c-.09.34-.17.69-.29,1l-1.05,2.83A12.14,12.14,0,0,1,15,27.1V25.44a4.54,4.54,0,0,0-1.37-3.1A1.94,1.94,0,0,1,13.06,21V19a1.92,1.92,0,0,0-1-1.7c-.87-.48-2.11-1.15-3-1.57A8.74,8.74,0,0,1,7.2,14.45l0,0a7.25,7.25,0,0,1-1.09-1.26C5.49,12.32,4.57,11,4,10.06A12.18,12.18,0,0,1,10.21,3.9l1.45.72a1,1,0,0,0,1.4-.86V3.07a14.53,14.53,0,0,1,1.48-.14l1.71,1.71a1,1,0,0,1,0,1.37L16,6.29l-.63.63a.48.48,0,0,0,0,.68l.29.28a.51.51,0,0,1,0,.69l-.49.48a.48.48,0,0,1-.34.14h-.54a.48.48,0,0,0-.34.14l-.6.58a.5.5,0,0,0-.1.57l.95,1.88a.49.49,0,0,1-.44.7h-.34a.49.49,0,0,1-.31-.11l-.57-.49a.94.94,0,0,0-.94-.19l-1.88.63a.72.72,0,0,0-.5.68.73.73,0,0,0,.4.65l.67.34A4.18,4.18,0,0,0,12.1,15c.63,0,1.36,1.65,1.93,1.93h4a2,2,0,0,1,1.37.57l.83.83a1.87,1.87,0,0,1,.54,1.3A2.83,2.83,0,0,1,20,21.63Zm5.24-5.53a1.41,1.41,0,0,1-.85-.6l-1.09-1.63a1.43,1.43,0,0,1,0-1.61l1.18-1.78A1.47,1.47,0,0,1,25,10l.79-.39A12,12,0,0,1,27.1,15,13,13,0,0,1,27,16.54Z"/></g></g></svg>