<svg xmlns="http://www.w3.org/2000/svg" viewBox="0 0 28.14 22.97"><defs><style>.cls-1{fill:#fe2e62;}</style></defs><title>Asset 4</title><g id="Layer_2" data-name="Layer 2"><g id="Layer_1-2" data-name="Layer 1"><g id="Layer_5" data-name="Layer 5"><path class="cls-1" d="M15.88,16.92a3.65,3.65,0,0,1-3.62,0l-8.17-5s-.74-.45-.74.57v5c0,2.64,4.8,5.48,10.72,5.48s10.72-2.84,10.72-5.48V12.2c0-.82-.52-.42-.52-.42Z"/><path class="cls-1" d="M27.67,7.92a.75.75,0,0,0,0-1.4L15.21.29a2.37,2.37,0,0,0-2.28,0L.47,6.52a.75.75,0,0,0,0,1.4l12.46,7.64a2.42,2.42,0,0,0,2.28,0"/><path class="cls-1" d="M27.15,19.24V10.81s0-.4-.23-.27a5.87,5.87,0,0,0-.82.51c-.19.16-.14.53-.14.53v7.66c0,.11-.1.16-.14.19a1.46,1.46,0,1,0,1.47,0A.23.23,0,0,1,27.15,19.24Z"/></g></g></g></svg>