<svg xmlns="http://www.w3.org/2000/svg" xmlns:xlink="http://www.w3.org/1999/xlink" viewBox="0 0 177.61 178.11"><defs><style>.cls-1{fill:#f4e4ba;}.cls-2{fill:#ffc311;}.cls-3{fill:#fe2e62;}.cls-4{fill:url(#linear-gradient);}.cls-5{fill:url(#linear-gradient-2);}.cls-6{fill:url(#linear-gradient-3);}.cls-7{fill:url(#linear-gradient-4);}.cls-8{fill:url(#linear-gradient-5);}.cls-9{fill:url(#linear-gradient-6);}.cls-10{fill:url(#linear-gradient-7);}.cls-11{fill:url(#linear-gradient-8);}.cls-12{fill:url(#linear-gradient-9);}.cls-13{fill:url(#linear-gradient-10);}.cls-14{fill:url(#linear-gradient-11);}.cls-15{fill:url(#linear-gradient-12);}.cls-16{fill:url(#linear-gradient-13);}.cls-17{fill:url(#linear-gradient-14);}.cls-18{fill:url(#linear-gradient-15);}.cls-19{fill:url(#linear-gradient-16);}.cls-20{fill:url(#linear-gradient-17);}.cls-21{fill:url(#linear-gradient-18);}.cls-22{fill:url(#linear-gradient-19);}.cls-23{fill:url(#linear-gradient-20);}.cls-24{fill:url(#linear-gradient-21);}.cls-25{fill:url(#linear-gradient-22);}.cls-26{fill:url(#linear-gradient-23);}.cls-27{fill:url(#linear-gradient-24);}.cls-28{fill:url(#linear-gradient-25);}.cls-29{fill:url(#linear-gradient-26);}.cls-30{fill:url(#linear-gradient-27);}.cls-31{fill:url(#linear-gradient-28);}.cls-32{fill:url(#linear-gradient-29);}.cls-33{fill:url(#linear-gradient-30);}.cls-34{fill:url(#linear-gradient-31);}.cls-35{fill:url(#linear-gradient-32);}.cls-36{fill:url(#linear-gradient-33);}.cls-37{fill:url(#linear-gradient-34);}.cls-38{fill:url(#linear-gradient-35);}.cls-39{fill:url(#linear-gradient-36);}.cls-40{fill:url(#linear-gradient-37);}.cls-41{fill:url(#linear-gradient-38);}.cls-42{fill:url(#linear-gradient-39);}</style><linearGradient id="linear-gradient" x1="116.54" y1="16.14" x2="122.51" y2="31.12" gradientUnits="userSpaceOnUse"><stop offset="0" stop-color="#09005d"/><stop offset="1" stop-color="#1a0f91"/></linearGradient><linearGradient id="linear-gradient-2" x1="-183.2" y1="-146.9" x2="-172.17" y2="-121.8" gradientTransform="translate(273.78 188.69) rotate(5.69)" gradientUnits="userSpaceOnUse"><stop offset="0" stop-color="#febbba"/><stop offset="1" stop-color="#ff928e"/></linearGradient><linearGradient id="linear-gradient-3" x1="140.77" y1="109.39" x2="139.91" y2="91.87" xlink:href="#linear-gradient"/><linearGradient id="linear-gradient-4" x1="116.97" y1="132.01" x2="124.26" y2="46.84" gradientTransform="matrix(1, 0, 0, 1, 0, 0)" xlink:href="#linear-gradient-2"/><linearGradient id="linear-gradient-5" x1="119.12" y1="110.65" x2="121.4" y2="94.99" xlink:href="#linear-gradient"/><linearGradient id="linear-gradient-6" x1="131.63" y1="133.27" x2="138.92" y2="48.09" gradientTransform="matrix(1, 0, 0, 1, 0, 0)" xlink:href="#linear-gradient-2"/><linearGradient id="linear-gradient-7" x1="166.64" y1="12.18" x2="137.81" y2="33.01" gradientUnits="userSpaceOnUse"><stop offset="0" stop-color="#ff928e"/><stop offset="1" stop-color="#fe7062"/></linearGradient><linearGradient id="linear-gradient-8" x1="128.23" y1="53.63" x2="107.46" y2="117.92" xlink:href="#linear-gradient"/><linearGradient id="linear-gradient-9" x1="116.33" y1="44.26" x2="119.03" y2="29.17" gradientTransform="matrix(1, 0, 0, 1, 0, 0)" xlink:href="#linear-gradient-2"/><linearGradient id="linear-gradient-10" x1="112.71" y1="35.15" x2="124.66" y2="13.89" gradientTransform="matrix(1, 0, 0, 1, 0, 0)" xlink:href="#linear-gradient-2"/><linearGradient id="linear-gradient-11" x1="115.28" y1="16.64" x2="121.25" y2="31.62" xlink:href="#linear-gradient"/><linearGradient id="linear-gradient-12" x1="115.26" y1="36.58" x2="127.2" y2="15.32" gradientTransform="matrix(1, 0, 0, 1, 0, 0)" xlink:href="#linear-gradient-2"/><linearGradient id="linear-gradient-13" x1="-186.17" y1="-147.73" x2="-178.55" y2="-130.39" xlink:href="#linear-gradient-2"/><linearGradient id="linear-gradient-14" x1="4086.78" y1="961.74" x2="4104.12" y2="961.74" gradientTransform="translate(2800.52 -3189.66) rotate(116.55)" xlink:href="#linear-gradient-2"/><linearGradient id="linear-gradient-15" x1="187.71" y1="65.38" x2="157.6" y2="99.01" xlink:href="#linear-gradient"/><linearGradient id="linear-gradient-16" x1="197.54" y1="74.17" x2="167.43" y2="107.81" xlink:href="#linear-gradient"/><linearGradient id="linear-gradient-17" x1="212.51" y1="87.58" x2="182.4" y2="121.21" xlink:href="#linear-gradient"/><linearGradient id="linear-gradient-18" x1="201.06" y1="77.32" x2="170.94" y2="110.96" xlink:href="#linear-gradient"/><linearGradient id="linear-gradient-19" x1="180.23" y1="58.68" x2="150.12" y2="92.32" xlink:href="#linear-gradient"/><linearGradient id="linear-gradient-20" x1="189.62" y1="67.08" x2="159.51" y2="100.72" xlink:href="#linear-gradient"/><linearGradient id="linear-gradient-21" x1="198.98" y1="75.46" x2="168.87" y2="109.1" xlink:href="#linear-gradient"/><linearGradient id="linear-gradient-22" x1="208.23" y1="83.74" x2="178.12" y2="117.38" xlink:href="#linear-gradient"/><linearGradient id="linear-gradient-23" x1="217.65" y1="92.17" x2="187.53" y2="125.81" xlink:href="#linear-gradient"/><linearGradient id="linear-gradient-24" x1="226.94" y1="100.49" x2="196.83" y2="134.13" xlink:href="#linear-gradient"/><linearGradient id="linear-gradient-25" x1="51.16" y1="156.57" x2="50.41" y2="165.75" xlink:href="#linear-gradient"/><linearGradient id="linear-gradient-26" x1="49.83" y1="178.66" x2="49.94" y2="164.67" xlink:href="#linear-gradient"/><linearGradient id="linear-gradient-27" x1="45.72" y1="172.59" x2="49.82" y2="172.59" gradientTransform="matrix(1, 0, 0, 1, 0, 0)" xlink:href="#linear-gradient-2"/><linearGradient id="linear-gradient-28" x1="1.3" y1="174.75" x2="9.85" y2="161.18" xlink:href="#linear-gradient"/><linearGradient id="linear-gradient-29" x1="11.33" y1="164.11" x2="5.67" y2="170.09" xlink:href="#linear-gradient"/><linearGradient id="linear-gradient-30" x1="1.76" y1="167.1" x2="6.32" y2="167.1" gradientTransform="matrix(1, 0, 0, 1, 0, 0)" xlink:href="#linear-gradient-2"/><linearGradient id="linear-gradient-31" x1="39" y1="144.16" x2="6.16" y2="173.3" xlink:href="#linear-gradient"/><linearGradient id="linear-gradient-32" x1="68.64" y1="181.55" x2="49.42" y2="152.71" xlink:href="#linear-gradient"/><linearGradient id="linear-gradient-33" x1="76.22" y1="112.06" x2="60.55" y2="122.6" gradientTransform="matrix(1, 0, 0, 1, 0, 0)" xlink:href="#linear-gradient-2"/><linearGradient id="linear-gradient-34" x1="71.85" y1="125.66" x2="70.85" y2="112.85" gradientTransform="matrix(1, 0, 0, 1, 0, 0)" xlink:href="#linear-gradient-2"/><linearGradient id="linear-gradient-35" x1="3469.57" y1="3610.97" x2="3478.61" y2="3622.61" gradientTransform="translate(2333.87 -4356.38) rotate(70.65)" xlink:href="#linear-gradient"/><linearGradient id="linear-gradient-36" x1="70.13" y1="125.8" x2="69.13" y2="112.98" gradientTransform="matrix(1, 0, 0, 1, 0, 0)" xlink:href="#linear-gradient-2"/><linearGradient id="linear-gradient-37" x1="981.16" y1="2836.66" x2="993.16" y2="2836.66" gradientTransform="matrix(0.41, -0.7, -0.86, -0.51, 2131.21, 2249.76)" xlink:href="#linear-gradient-2"/><linearGradient id="linear-gradient-38" x1="63.81" y1="154.65" x2="63.38" y2="124.03" xlink:href="#linear-gradient-7"/><linearGradient id="linear-gradient-39" x1="80.22" y1="93.07" x2="53.52" y2="141.99" gradientUnits="userSpaceOnUse"><stop offset="0" stop-color="#e1473d"/><stop offset="1" stop-color="#e9605a"/></linearGradient></defs><title>Asset 1</title><g id="Layer_2" data-name="Layer 2"><g id="Layer_1-2" data-name="Layer 1"><path class="cls-1" d="M154.89,149.11a66.87,66.87,0,0,1-11.72,9.51C112.83,178.88,78.14,173,67.41,171c-17.3-3.22-31.91-5.49-44.45-16.83C-5.56,128.45-4.17,74.71,17.62,41.42,20.2,37.47,42,5.22,76.72.68c.85-.11,1.48-.18,2-.24,5.38-.57,38.7-3.57,65.87,19.19a81.18,81.18,0,0,1,16,18.11C181.81,70.52,181.88,121.28,154.89,149.11Z"/><path class="cls-2" d="M46.07,34a1,1,0,0,1-.62-1.22c.3-1.12.65-2.24,1-3.33a1,1,0,0,1,1.31-.61h0a1,1,0,0,1,.6,1.3c-.38,1-.71,2.1-1,3.16a1,1,0,0,1-1.25.72Zm3.25-8.29-.11-.05a1,1,0,0,1-.43-1.38c.54-1,1.13-2,1.75-3A1,1,0,0,1,51.94,21a1,1,0,0,1,.31,1.42c-.59.92-1.15,1.88-1.66,2.86A1,1,0,0,1,49.32,25.71Zm5-7.37a1,1,0,0,1-.3-.18,1,1,0,0,1-.11-1.44c.75-.88,1.55-1.74,2.38-2.55a1,1,0,0,1,1.43,1.46c-.78.77-1.54,1.58-2.26,2.42A1,1,0,0,1,54.31,18.34Zm6.52-6.07a1,1,0,0,1-.46-.35,1,1,0,0,1,.21-1.42c.94-.69,1.91-1.35,2.89-2a1,1,0,0,1,1.41.34,1,1,0,0,1-.34,1.4c-.93.58-1.86,1.2-2.74,1.86A1,1,0,0,1,60.83,12.27Zm7.7-4.46A1,1,0,0,1,68,7.26a1,1,0,0,1,.53-1.34c1.05-.47,2.15-.89,3.24-1.27a1,1,0,0,1,.66,1.94c-1,.35-2.08.76-3.08,1.2A1.05,1.05,0,0,1,68.53,7.81ZM77,5.16a1,1,0,0,1,.17-2c1.14-.22,2.3-.39,3.45-.51a1,1,0,0,1,.21,2c-1.09.12-2.19.28-3.27.49A1,1,0,0,1,77,5.16Zm35.83,11.13a1,1,0,0,1-.36-.24c-.77-.78-1.58-1.54-2.42-2.26a1,1,0,1,1,1.33-1.55c.88.75,1.74,1.55,2.55,2.37a1,1,0,0,1,0,1.45A1.05,1.05,0,0,1,112.86,16.29ZM85.9,4.46a1,1,0,0,1,.4-2c1.15,0,2.32.13,3.47.26a1,1,0,0,1,.89,1.14,1,1,0,0,1-1.13.89c-1.09-.13-2.2-.21-3.3-.25A1.14,1.14,0,0,1,85.9,4.46Zm20,6.23a.76.76,0,0,1-.18-.09c-.93-.59-1.9-1.15-2.87-1.66a1,1,0,0,1,1-1.81c1,.54,2,1.13,3,1.75a1,1,0,0,1,.32,1.41A1,1,0,0,1,105.94,10.69ZM94.7,5.76a1,1,0,0,1-.62-1.21,1,1,0,0,1,1.25-.73c1.12.3,2.23.65,3.32,1h0A1,1,0,0,1,98,6.78c-1-.37-2.09-.7-3.16-1Z"/><path class="cls-2" d="M117.42,21.83a1,1,0,0,1-.48-.38c-.29-.43-.61-.87-.92-1.3a1,1,0,1,1,1.64-1.21c.33.44.66.9,1,1.36a1,1,0,0,1-.27,1.42A1,1,0,0,1,117.42,21.83Z"/><path class="cls-2" d="M123.49,52.39a1,1,0,0,1-.63-1.17c.1-.51.2-1,.29-1.56a1,1,0,0,1,2,.34c-.1.55-.2,1.1-.31,1.64a1,1,0,0,1-1.21.79Z"/><path class="cls-2" d="M70.33,81.41c-.44-.17-.87-.34-1.31-.53A1,1,0,1,1,69.81,79c1,.43,2,.81,3,1.14a1,1,0,0,1-.63,2C71.6,81.88,71,81.65,70.33,81.41Zm-6.13-3-.15-.08c-1-.58-1.95-1.21-2.88-1.87a1,1,0,1,1,1.19-1.66c.88.63,1.8,1.22,2.73,1.78a1,1,0,0,1-.89,1.83Zm13.24,5a1,1,0,0,1-.64-1.13A1,1,0,0,1,78,81.44c1.06.2,2.15.35,3.23.45a1,1,0,0,1-.2,2c-1.13-.11-2.28-.27-3.39-.47A1.06,1.06,0,0,1,77.44,83.4ZM57.2,73.18a1.15,1.15,0,0,1-.33-.21c-.83-.78-1.63-1.61-2.39-2.46A1,1,0,1,1,56,69.15c.72.8,1.49,1.59,2.27,2.33a1,1,0,0,1-1.07,1.7ZM86.18,84a1.05,1.05,0,0,1-.66-.92,1,1,0,0,1,1-1.06c1.08,0,2.17-.14,3.24-.27a1,1,0,0,1,.26,2c-1.13.15-2.28.24-3.42.29A1,1,0,0,1,86.18,84Zm8.65-1.33a1,1,0,0,1-.62-.69,1,1,0,0,1,.72-1.25c1-.28,2.09-.61,3.11-1a1,1,0,1,1,.69,1.92c-1.07.39-2.17.73-3.27,1A1,1,0,0,1,94.83,82.68ZM103,79.49a1,1,0,0,1-.54-.48,1,1,0,0,1,.43-1.38c1-.5,1.91-1,2.82-1.62a1,1,0,0,1,1.1,1.72c-1,.61-2,1.19-3,1.71A1,1,0,0,1,103,79.49Zm7.27-4.88a.93.93,0,0,1-.41-.3,1,1,0,0,1,.12-1.44c.82-.7,1.63-1.44,2.39-2.2a1,1,0,1,1,1.45,1.44c-.8.8-1.65,1.59-2.52,2.32A1,1,0,0,1,110.26,74.61Zm6-6.37a1,1,0,0,1-.25-.14,1,1,0,0,1-.2-1.43c.65-.86,1.27-1.76,1.85-2.68a1,1,0,0,1,1.73,1.09c-.61,1-1.26,1.91-2,2.82A1,1,0,0,1,116.28,68.24Zm4.48-7.53-.06,0a1,1,0,0,1-.51-1.36c.33-.72.64-1.47.93-2.21l.3-.81a1,1,0,0,1,1.92.69c-.1.29-.21.57-.32.85-.29.78-.62,1.57-1,2.33A1,1,0,0,1,120.76,60.71Z"/><path class="cls-2" d="M51.53,66.47a1.06,1.06,0,0,1-.49-.38q-.47-.69-.9-1.41a1,1,0,0,1,.33-1.4,1,1,0,0,1,1.41.33c.28.45.57.9.86,1.34a1,1,0,0,1-.28,1.42A1,1,0,0,1,51.53,66.47Z"/><path class="cls-3" d="M57.05,55.9a.49.49,0,0,0,.45.33l5.81.08a25.3,25.3,0,0,0,5.36,6.21l-.78,5.76a.47.47,0,0,0,.25.49l6.23,3.14a.47.47,0,0,0,.55-.09l4.16-4a25.2,25.2,0,0,0,8.18.61L90.78,73a.48.48,0,0,0,.53.17L97.93,71a.46.46,0,0,0,.33-.44l.08-5.82a25.3,25.3,0,0,0,6.22-5.35l5.75.78a.46.46,0,0,0,.49-.26l3.14-6.22a.49.49,0,0,0-.08-.55l-4-4.16a25.47,25.47,0,0,0,.6-8.18L115,37.26a.49.49,0,0,0,.16-.53L113,30.1a.48.48,0,0,0-.45-.32l-5.81-.08a25.17,25.17,0,0,0-5.36-6.22l.79-5.76a.5.5,0,0,0-.26-.49L95.7,14.1a.47.47,0,0,0-.55.08L91,18.23a25.47,25.47,0,0,0-8.18-.6L79.29,13a.47.47,0,0,0-.53-.16L72.14,15a.46.46,0,0,0-.33.45l-.08,5.81a25.52,25.52,0,0,0-6.22,5.35l-5.75-.78a.48.48,0,0,0-.49.26l-3.14,6.23a.47.47,0,0,0,.08.54l4,4.17a25.43,25.43,0,0,0-.6,8.18L55,48.75a.49.49,0,0,0-.16.53Z"/><path class="cls-2" d="M82.52,49.55a7,7,0,0,1,4-13.39A7,7,0,0,1,91,39.24a7,7,0,0,1-7.44,10.6A6.63,6.63,0,0,1,82.52,49.55ZM87,38a5.11,5.11,0,0,0-.76-.23,5.37,5.37,0,1,0,3.36,2.36A5.32,5.32,0,0,0,87,38Z"/><path class="cls-2" d="M79,59.05a17.63,17.63,0,0,1-1.61-.72h0l-.5-.26a17,17,0,0,1-2.31-1.51l0,0-.09-.07-.16-.12a.41.41,0,0,1-.12-.47.24.24,0,0,1,.06-.11.41.41,0,0,1,.58-.06,16.11,16.11,0,0,0,2.93,1.89,16.42,16.42,0,0,0,22-7.27,15,15,0,0,0,.68-1.54,16.42,16.42,0,0,0-30-13.23,15.91,15.91,0,0,0-.67,1.52,16.31,16.31,0,0,0-1,7.05.57.57,0,0,1,0,.18.4.4,0,0,1-.35.26.41.41,0,0,1-.44-.38,17.12,17.12,0,0,1,1.1-7.4,16.15,16.15,0,0,1,.7-1.6,17.24,17.24,0,0,1,31.5,13.89,16.65,16.65,0,0,1-.72,1.62A17.24,17.24,0,0,1,79,59.05Z"/><path class="cls-2" d="M173.62,58.44a.59.59,0,0,1,.11.71c-.25.46-.51.91-.79,1.34a.59.59,0,0,1-.83.2.6.6,0,0,1-.19-.84c.26-.41.51-.84.74-1.27a.6.6,0,0,1,.82-.25A.53.53,0,0,1,173.62,58.44Z"/><path class="cls-2" d="M171,62.31a.6.6,0,0,1,0,.81,25.86,25.86,0,0,1-1.78,2l-.4.4a.63.63,0,0,1-.86,0,.61.61,0,0,1,0-.86l.39-.37c.59-.6,1.17-1.24,1.7-1.89a.6.6,0,0,1,.85-.09Zm-4.54,4.37.06.06a.61.61,0,0,1-.12.85,26.77,26.77,0,0,1-2.7,1.78.6.6,0,0,1-.82-.23.59.59,0,0,1,.22-.82,24.3,24.3,0,0,0,2.57-1.7A.61.61,0,0,1,166.49,66.68ZM161,69.81a.5.5,0,0,1,.13.19.61.61,0,0,1-.32.8,27.5,27.5,0,0,1-3.05,1.06.61.61,0,0,1-.33-1.17,26.31,26.31,0,0,0,2.91-1A.6.6,0,0,1,161,69.81ZM155,71.51a.56.56,0,0,1,.17.33.61.61,0,0,1-.51.69,26.58,26.58,0,0,1-3.21.29.61.61,0,1,1,0-1.22,22.44,22.44,0,0,0,3.06-.27A.58.58,0,0,1,155,71.51Zm-6.29.16a.61.61,0,0,1-.49,1,24.63,24.63,0,0,1-3.19-.51.61.61,0,0,1-.46-.72.61.61,0,0,1,.73-.46,26,26,0,0,0,3,.49A.58.58,0,0,1,148.68,71.67Zm-6.14-1.37a.61.61,0,0,1-.64,1,26.63,26.63,0,0,1-3-1.27.6.6,0,0,1,.54-1.08,25.07,25.07,0,0,0,2.83,1.21A.68.68,0,0,1,142.54,70.3Zm-5.62-2.83a.61.61,0,0,1-.77.94,27.09,27.09,0,0,1-2.56-2,.61.61,0,0,1-.06-.86.6.6,0,0,1,.85-.06,26,26,0,0,0,2.45,1.87Zm-6.73-6.59.07.09a25.49,25.49,0,0,0,1.66,2.1l.26.3a.6.6,0,0,1,0,.86.61.61,0,0,1-.86,0l-.28-.32a28,28,0,0,1-1.73-2.21.61.61,0,0,1,.92-.78Z"/><path class="cls-2" d="M169,27.84a.61.61,0,0,1,0,.85.6.6,0,0,1-.85,0,25.3,25.3,0,0,0-2.3-2,.6.6,0,1,1,.73-1,24.84,24.84,0,0,1,2.41,2.07ZM171,30.13l0,.05a25.83,25.83,0,0,1,1.85,2.58.62.62,0,0,1-.19.84.61.61,0,0,1-.84-.19,28.38,28.38,0,0,0-1.76-2.47.6.6,0,0,1,.09-.85A.61.61,0,0,1,171,30.13Zm-7-6a.61.61,0,0,1-.74.95,27.27,27.27,0,0,0-2.7-1.36.6.6,0,0,1-.32-.79.61.61,0,0,1,.8-.32A25.79,25.79,0,0,1,163.89,24Zm10.3,11.28a1.09,1.09,0,0,1,.13.17,26,26,0,0,1,1.16,3,.6.6,0,1,1-1.15.37,26,26,0,0,0-1.11-2.81.6.6,0,0,1,1-.69Zm-16-13.72a.61.61,0,0,1-.6,1,27.33,27.33,0,0,0-2.95-.67.6.6,0,0,1,.19-1.19,25.26,25.26,0,0,1,3.1.7A.61.61,0,0,1,158.33,21.66Zm-6.11-1a.65.65,0,0,1,.18.45.6.6,0,0,1-.63.58,25.5,25.5,0,0,0-3,.06.61.61,0,0,1-.1-1.21,28.08,28.08,0,0,1,3.18-.06A.62.62,0,0,1,152.22,20.66Zm-6.17.49a.55.55,0,0,1,.16.3.61.61,0,0,1-.47.72,24.3,24.3,0,0,0-2.93.78.62.62,0,0,1-.77-.38.61.61,0,0,1,.39-.77A26.68,26.68,0,0,1,145.5,21,.62.62,0,0,1,146.05,21.15Z"/><path class="cls-2" d="M176.25,41.3a.67.67,0,0,1,.17.31c.1.51.18,1,.25,1.53a.61.61,0,0,1-1.2.16c-.07-.48-.15-1-.24-1.46a.6.6,0,0,1,1-.54Z"/><path class="cls-3" d="M170.37,46.49a.31.31,0,0,0-.18-.31l-3.39-1.56a16.37,16.37,0,0,0-1.53-5l2-3.18a.3.3,0,0,0,0-.35l-2.84-3.47a.31.31,0,0,0-.35-.09l-3.5,1.29a16.46,16.46,0,0,0-4.65-2.49L155,27.65a.32.32,0,0,0-.27-.24L150.28,27a.32.32,0,0,0-.31.18l-1.56,3.39a16.1,16.1,0,0,0-5,1.53l-3.18-2a.3.3,0,0,0-.35,0L136.36,33a.29.29,0,0,0-.09.34l1.29,3.51a16.13,16.13,0,0,0-2.48,4.64l-3.64.87a.3.3,0,0,0-.23.27l-.45,4.46a.3.3,0,0,0,.18.3l3.39,1.57a16.31,16.31,0,0,0,1.53,5l-2,3.18a.32.32,0,0,0,0,.36L136.76,61a.31.31,0,0,0,.35.1l3.5-1.3a16,16,0,0,0,4.65,2.49l.86,3.64a.31.31,0,0,0,.27.23l4.46.44a.3.3,0,0,0,.31-.17l1.56-3.4a16.16,16.16,0,0,0,5.05-1.52l3.17,2a.3.3,0,0,0,.36,0l3.47-2.84a.29.29,0,0,0,.09-.34l-1.29-3.5a16.31,16.31,0,0,0,2.48-4.65l3.64-.86a.3.3,0,0,0,.23-.27Z"/><path class="cls-2" d="M153.81,43.53a4.67,4.67,0,1,1-.52-.44A3.67,3.67,0,0,1,153.81,43.53Zm-5.63,5.63a2.92,2.92,0,0,0,.38.32,3.37,3.37,0,1,0,4-5.42h0a3.29,3.29,0,0,0-2.5-.62,3.34,3.34,0,0,0-2.22,1.33A3.39,3.39,0,0,0,148.18,49.16Z"/><path class="cls-2" d="M158.52,38.67a9,9,0,0,1,.78.86,11.68,11.68,0,0,1,1.29,1.94l0,.1a.6.6,0,0,1-.11.7.57.57,0,0,1-.16.11.59.59,0,0,1-.81-.26,10.36,10.36,0,0,0-1.19-1.82h0l-.08-.09a10.11,10.11,0,0,0-4-2.93,10.44,10.44,0,0,0-2.67-.66h-.09A10.18,10.18,0,0,0,144,38.87c-.27.23-.53.46-.78.71a10.21,10.21,0,0,0,13.72,15.09c.27-.22.52-.46.77-.7a10.36,10.36,0,0,0,2.37-3.74.68.68,0,0,1,.14-.23.6.6,0,0,1,.63-.14.61.61,0,0,1,.37.78,11.67,11.67,0,0,1-2.65,4.19c-.28.27-.56.53-.86.78a11.42,11.42,0,0,1-15.35-16.88c.28-.28.57-.54.87-.79A11.43,11.43,0,0,1,158.52,38.67Z"/><path class="cls-2" d="M9.34,93.93a.67.67,0,0,1-.48-.64q0-.86.06-1.71a.67.67,0,1,1,1.33.09q0,.81-.06,1.62a.67.67,0,0,1-.67.67A.57.57,0,0,1,9.34,93.93Z"/><path class="cls-2" d="M9.83,88.82a.65.65,0,0,1-.46-.76,27.55,27.55,0,0,1,.7-2.85c0-.2.12-.39.18-.59a.68.68,0,0,1,.84-.43.67.67,0,0,1,.43.84l-.18.56c-.26.89-.49,1.81-.66,2.72a.67.67,0,0,1-.78.53ZM12,82.23l-.09,0a.67.67,0,0,1-.33-.89,28.45,28.45,0,0,1,1.69-3.12.66.66,0,0,1,.91-.22.67.67,0,0,1,.22.92,26.79,26.79,0,0,0-1.61,3A.66.66,0,0,1,12,82.23Zm3.65-5.88a.57.57,0,0,1-.23-.12.67.67,0,0,1-.09-.94,28.34,28.34,0,0,1,2.4-2.62.67.67,0,0,1,.92,1,28.38,28.38,0,0,0-2.29,2.49A.65.65,0,0,1,15.61,76.35Zm5-4.8a.66.66,0,0,1-.21-1.17,26.65,26.65,0,0,1,3-1.95.66.66,0,0,1,.91.25.67.67,0,0,1-.25.91,26.45,26.45,0,0,0-2.83,1.85A.64.64,0,0,1,20.61,71.55Zm6-3.44a.65.65,0,0,1-.43-.38.67.67,0,0,1,.36-.87,28.9,28.9,0,0,1,3.35-1.17.68.68,0,0,1,.83.46.66.66,0,0,1-.47.82,28.06,28.06,0,0,0-3.19,1.12A.7.7,0,0,1,26.62,68.11Zm6.66-1.87a.67.67,0,0,1-.47-.54.68.68,0,0,1,.56-.76,28,28,0,0,1,3.54-.31.66.66,0,0,1,.68.64.67.67,0,0,1-.65.69,27.39,27.39,0,0,0-3.37.3A.57.57,0,0,1,33.28,66.24Zm6.92-.19a.67.67,0,0,1,.26-1.3,27.71,27.71,0,0,1,3.5.56.68.68,0,0,1,.51.8.67.67,0,0,1-.8.5,29.36,29.36,0,0,0-3.34-.53Zm9.95,2.89-.11,0c-.87-.43-1.78-.83-2.7-1.18l-.42-.15a.67.67,0,0,1-.4-.85.66.66,0,0,1,.85-.41l.44.16c1,.37,1.92.78,2.83,1.24a.67.67,0,0,1-.49,1.24Z"/><path class="cls-2" d="M29.8,121.14a.67.67,0,0,1,.38-1.28,25.82,25.82,0,0,0,3.25.72.67.67,0,1,1-.21,1.32,31,31,0,0,1-3.41-.75ZM26.58,120l-.06,0a30.41,30.41,0,0,1-3.14-1.54.67.67,0,0,1,.66-1.16,27.61,27.61,0,0,0,3,1.47.66.66,0,0,1-.45,1.25Zm10,2.19a.66.66,0,0,1,.22-1.3,30.93,30.93,0,0,0,3.33-.09.66.66,0,0,1,.72.6.66.66,0,0,1-.61.72,27.08,27.08,0,0,1-3.49.1A.51.51,0,0,1,36.53,122.2Zm-15.87-5.56a.56.56,0,0,1-.2-.11,27.38,27.38,0,0,1-2.67-2.25.66.66,0,0,1,.92-1,28.75,28.75,0,0,0,2.54,2.14.67.67,0,0,1-.59,1.18Zm22.66,5a.67.67,0,0,1-.47-.5.68.68,0,0,1,.52-.79,27.77,27.77,0,0,0,3.21-.89.67.67,0,0,1,.43,1.26,28.05,28.05,0,0,1-3.37.94A.69.69,0,0,1,43.32,121.6Zm6.44-2.21a.63.63,0,0,1-.41-.34.68.68,0,0,1,.31-.9,26.58,26.58,0,0,0,2.9-1.63.68.68,0,0,1,.93.2.69.69,0,0,1-.2.93,31.33,31.33,0,0,1-3,1.71A.67.67,0,0,1,49.76,119.39Zm5.73-3.69a.59.59,0,0,1-.33-.21.68.68,0,0,1,.09-.94,27.54,27.54,0,0,0,2.43-2.28.67.67,0,1,1,1,.92,27.5,27.5,0,0,1-2.55,2.39A.62.62,0,0,1,55.49,115.7Z"/><path class="cls-2" d="M15.72,111.91a.67.67,0,0,1-.33-.22c-.36-.44-.71-.89-1-1.35a.66.66,0,0,1,.15-.93.67.67,0,0,1,.93.15c.31.43.65.87,1,1.29a.67.67,0,0,1-.09.94A.68.68,0,0,1,15.72,111.91Z"/><path class="cls-3" d="M18.71,103.81a.34.34,0,0,0,.34.21l4.1-.25a17.93,17.93,0,0,0,4.11,4.09L27,112a.35.35,0,0,0,.21.34l4.56,1.88a.34.34,0,0,0,.38-.09L34.88,111a17.91,17.91,0,0,0,5.8,0l2.73,3.07a.33.33,0,0,0,.38.09l4.56-1.89a.34.34,0,0,0,.2-.34l-.25-4.1a17.77,17.77,0,0,0,4.1-4.11l4.1.25a.34.34,0,0,0,.33-.21l1.88-4.56a.33.33,0,0,0-.09-.38L55.54,96.1a17.64,17.64,0,0,0,0-5.8l3.08-2.73a.34.34,0,0,0,.08-.38L56.8,82.63a.33.33,0,0,0-.33-.2l-4.1.25a18,18,0,0,0-4.11-4.1l.24-4.1a.33.33,0,0,0-.21-.33l-4.55-1.88a.34.34,0,0,0-.39.09l-2.72,3.08a17.64,17.64,0,0,0-5.8,0L32.1,72.37a.34.34,0,0,0-.38-.08l-4.55,1.89a.34.34,0,0,0-.21.33l.26,4.11a17.92,17.92,0,0,0-4.1,4.1L19,82.48a.34.34,0,0,0-.34.21L16.8,87.24a.35.35,0,0,0,.09.39L20,90.35a17.91,17.91,0,0,0,0,5.8l-3.07,2.73a.34.34,0,0,0-.09.38Z"/><path class="cls-2" d="M36.3,98.06a5.08,5.08,0,1,1,.73.16A5.93,5.93,0,0,1,36.3,98.06Zm2.52-8.39a4.54,4.54,0,0,0-.53-.12,3.71,3.71,0,0,0-1.07,7.35h0a3.71,3.71,0,0,0,1.6-7.23Z"/><path class="cls-2" d="M34.26,105.22c-.4-.12-.8-.27-1.2-.43a12.92,12.92,0,0,1-2.26-1.21l-.09-.07a.65.65,0,0,1-.26-.73.66.66,0,0,1,.09-.19.65.65,0,0,1,.92-.17,11.92,11.92,0,0,0,2.11,1.14h0l.12,0a11.1,11.1,0,0,0,8.38,0h0l.07,0a11.19,11.19,0,0,0,6.07-6.09,10.9,10.9,0,0,0,.39-1.09,11.23,11.23,0,0,0-21.15-7.48A9.86,9.86,0,0,0,27.09,90a11.24,11.24,0,0,0-.35,4.86.57.57,0,0,1,0,.29.67.67,0,0,1-.54.47.68.68,0,0,1-.76-.56,12.51,12.51,0,0,1,.39-5.44,10.9,10.9,0,0,1,.43-1.21A12.57,12.57,0,0,1,49.9,96.75c-.12.41-.27.82-.43,1.22A12.6,12.6,0,0,1,34.26,105.22Z"/><path class="cls-2" d="M82.77,133.63a1,1,0,0,1-1.06-.8c-.22-1.1-.39-2.23-.51-3.35a1,1,0,0,1,.88-1.1h0a1,1,0,0,1,1.08.88c.11,1.07.28,2.14.48,3.19a1,1,0,0,1-.79,1.17ZM82.06,125H82a1,1,0,0,1-1-1c0-1.13.11-2.27.24-3.39a1,1,0,0,1,2,.22C83.08,121.87,83,123,83,124A1,1,0,0,1,82.06,125Zm1.22-8.59a1,1,0,0,1-.34,0,1,1,0,0,1-.71-1.22c.28-1.09.61-2.18,1-3.24a1,1,0,0,1,1.27-.61,1,1,0,0,1,.6,1.27c-.35,1-.67,2.05-.94,3.08A1,1,0,0,1,83.28,116.4Zm3.1-8.11a.94.94,0,0,1-.54-.11,1,1,0,0,1-.43-1.34c.52-1,1.09-2,1.69-2.94A1,1,0,0,1,88.79,105c-.58.91-1.12,1.85-1.61,2.8A1,1,0,0,1,86.38,108.29Zm4.84-7.21a1,1,0,0,1-.73-.23,1,1,0,0,1-.12-1.4c.73-.86,1.5-1.7,2.3-2.5a1,1,0,0,1,1.41,1.41c-.76.76-1.5,1.56-2.19,2.38A1,1,0,0,1,91.22,101.08Zm6.31-6a1,1,0,0,1-.69-1.79c.9-.68,1.84-1.33,2.79-1.93a1,1,0,1,1,1.06,1.69c-.9.57-1.8,1.19-2.65,1.83A1.05,1.05,0,0,1,97.53,95.13Zm36.14-5.61a1,1,0,0,1-.42,0c-1-.36-2.05-.67-3.08-.94a1,1,0,1,1,.49-1.93c1.1.28,2.19.61,3.25,1a1,1,0,0,1-.24,1.93ZM105,90.72a1,1,0,0,1-.49-1.9c1-.47,2.09-.89,3.15-1.26a1,1,0,0,1,.66,1.88c-1,.36-2,.76-3,1.19A.9.9,0,0,1,105,90.72Zm20.22-3.13H125c-1.06-.12-2.15-.2-3.22-.23a1,1,0,0,1,0-2c1.13,0,2.27.11,3.39.24a1,1,0,0,1,0,2Zm-11.95.5a1,1,0,0,1-1.07-.8,1,1,0,0,1,.79-1.17c1.1-.22,2.23-.4,3.35-.52h0a1,1,0,0,1,.2,2c-1.06.12-2.14.28-3.19.49Z"/><path class="cls-2" d="M140,92.42a1,1,0,0,1-.58-.12c-.44-.26-.9-.51-1.36-.75a1,1,0,1,1,.92-1.76c.48.25,1,.51,1.43.78a1,1,0,0,1,.37,1.35A1,1,0,0,1,140,92.42Z"/><path class="cls-2" d="M158.44,116.58a1,1,0,0,1-1.06-.75c-.12-.49-.26-1-.41-1.49a1,1,0,1,1,1.91-.57c.16.52.3,1,.43,1.57a1,1,0,0,1-.72,1.21A.4.4,0,0,1,158.44,116.58Z"/><path class="cls-2" d="M124.32,164.77l-1.37.1a1,1,0,0,1-1-.94,1,1,0,0,1,.93-1.05c1.07-.06,2.13-.17,3.17-.31a1,1,0,0,1,1.12.85,1,1,0,0,1-.85,1.12C125.63,164.63,125,164.71,124.32,164.77Zm-6.63,0h-.17c-1.11-.09-2.23-.23-3.32-.41a1,1,0,0,1,.32-2c1,.18,2.1.31,3.16.39a1,1,0,0,1,0,2Zm13.71-1.34a1,1,0,0,1-.36-2c1-.28,2-.62,3-1a1,1,0,0,1,1.28.58,1,1,0,0,1-.58,1.29c-1,.39-2.11.74-3.18,1Zm-22.1-.28a1,1,0,0,1-.38,0c-1.06-.33-2.12-.71-3.15-1.13a1,1,0,1,1,.75-1.85c1,.4,2,.76,3,1.07a1,1,0,0,1-.21,2Zm30-2.93a1,1,0,0,1-.57-1.87c.93-.5,1.84-1,2.73-1.63a1,1,0,0,1,1.09,1.67c-.93.61-1.89,1.19-2.87,1.71A.89.89,0,0,1,139.31,160.25Zm7-4.87a1,1,0,0,1-.75-1.74q1.2-1,2.31-2.19a1,1,0,0,1,1.43,1.39c-.78.8-1.59,1.57-2.43,2.3A1,1,0,0,1,146.32,155.38Zm5.78-6.28a1,1,0,0,1-.89-1.58c.62-.86,1.22-1.74,1.77-2.64a1,1,0,0,1,1.7,1c-.58,1-1.21,1.88-1.87,2.78A1.05,1.05,0,0,1,152.1,149.1Zm4.27-7.4a.94.94,0,0,1-.49-.08,1,1,0,0,1-.51-1.31c.42-1,.81-2,1.15-3a1,1,0,1,1,1.89.65c-.36,1.05-.77,2.09-1.22,3.11A1,1,0,0,1,156.37,141.7Zm2.55-8.15a.88.88,0,0,1-.28,0,1,1,0,0,1-.79-1.16c.2-1,.36-2.09.47-3.14a1,1,0,0,1,2,.21c-.12,1.11-.28,2.22-.49,3.31A1,1,0,0,1,158.92,133.55Zm.69-8.51h-.06a1,1,0,0,1-1-1c0-.78-.06-1.56-.13-2.34l-.09-.83a1,1,0,0,1,.88-1.1,1,1,0,0,1,1.1.88c0,.29.07.58.09.88.07.81.12,1.63.14,2.45A1,1,0,0,1,159.61,125Z"/><path class="cls-2" d="M101.46,159.74a1,1,0,0,1-.59-.13c-.47-.27-.94-.55-1.4-.85a1,1,0,0,1-.31-1.37,1,1,0,0,1,1.38-.31c.44.28.88.55,1.33.81a1,1,0,0,1-.41,1.85Z"/><path class="cls-3" d="M101.77,148.11a.46.46,0,0,0,.53.1l5.12-2.42a24.68,24.68,0,0,0,7.35,3.15l1.78,5.37a.47.47,0,0,0,.44.32l6.8.08a.46.46,0,0,0,.44-.3l1.91-5.34a24.3,24.3,0,0,0,7.42-3l5.07,2.54a.46.46,0,0,0,.53-.08l4.86-4.75a.46.46,0,0,0,.1-.53l-2.42-5.12a24.68,24.68,0,0,0,3.15-7.35l5.37-1.79a.45.45,0,0,0,.32-.43l.08-6.8a.45.45,0,0,0-.3-.44L145,119.44a24.58,24.58,0,0,0-3-7.42l2.54-5.07a.45.45,0,0,0-.08-.53l-4.75-4.87a.46.46,0,0,0-.53-.09l-5.12,2.42a24.68,24.68,0,0,0-7.35-3.15l-1.78-5.38a.5.5,0,0,0-.44-.32L117.7,95a.48.48,0,0,0-.44.31l-1.91,5.33a24.58,24.58,0,0,0-7.42,3L102.86,101a.46.46,0,0,0-.53.08l-4.86,4.75a.46.46,0,0,0-.1.53l2.42,5.12a24.68,24.68,0,0,0-3.15,7.35l-5.38,1.78a.48.48,0,0,0-.31.44l-.09,6.8a.49.49,0,0,0,.31.44l5.33,1.91a24.58,24.58,0,0,0,3,7.42l-2.54,5.07a.46.46,0,0,0,.08.53Z"/><path class="cls-2" d="M121.35,131.64a6.82,6.82,0,1,1,1-.16A6.84,6.84,0,0,1,121.35,131.64Zm-1.06-12a6.88,6.88,0,0,0-.77.13,5.24,5.24,0,1,0,6.32,3.87,5.26,5.26,0,0,0-5.55-4Z"/><path class="cls-2" d="M122.36,141.46a16.38,16.38,0,0,1-1.72.06h-.55a16,16,0,0,1-2.67-.34h0l-.11,0-.19-.05a.38.38,0,0,1-.31-.35.62.62,0,0,1,0-.13.39.39,0,0,1,.47-.29,16.1,16.1,0,0,0,17-6.87,15.91,15.91,0,0,0,2.6-8.54,15,15,0,0,0-.06-1.65,16,16,0,0,0-31.94,1.26,14.71,14.71,0,0,0,.06,1.63,16,16,0,0,0,2.11,6.62.33.33,0,0,1,0,.16.41.41,0,0,1-.19.38.4.4,0,0,1-.55-.14,16.78,16.78,0,0,1-2.21-7c0-.57-.07-1.13-.07-1.71A16.8,16.8,0,0,1,132.86,113a16.64,16.64,0,0,1,4.71,10.21c.05.57.07,1.14.07,1.73a16.84,16.84,0,0,1-15.28,16.53Z"/><path class="cls-4" d="M120.08,24.2s2,1,2.38,2.1c.3.9,2.52,1,2.74,2.79a2,2,0,0,0,1.71,1.8c2.27.34,5.77,1.52,6.33,5.47.43,3-1.1,4.16-2.72,4.55a2.29,2.29,0,0,0-1.73,2.64c.23,1.15-.11,2.47-2.1,3.52-4.45,2.35-8.89-5.56-8.89-5.56l-.91-13.82Z"/><path class="cls-5" d="M101.77,16s4.15,16.11,13.37,21.93c0,0-3.75,4.95-5.47,5.1,0,0-9-14.31-9-25.29Z"/><path class="cls-6" d="M138.37,110.82l.29,2.37a1,1,0,0,0,.86.86,16.06,16.06,0,0,0,3.17,0,.84.84,0,0,0,.7-1.09,8.52,8.52,0,0,0-1.59-3.09h-2.63A.8.8,0,0,0,138.37,110.82Z"/><path class="cls-7" d="M117.8,83.09l-.44,2.6s1.48,15,1.74,21.06a4.7,4.7,0,0,1-.69,2.68l-2.58,4.19,6.56-3.87.13-.8-1.08-1.48,1.41-16.85a5.12,5.12,0,0,0-.59-2.85l-1.36-2.55Z"/><path class="cls-8" d="M115.39,114.23h2.1a1.25,1.25,0,0,0,1-.5c.65-.84,2-2.5,2.65-2.54.87-.06.76,3,.76,3h.49l.61-3.85a2.26,2.26,0,0,0-1.19-2.38h0a3.22,3.22,0,0,1-1.28,2.12c-1.08.65-4.39,3-4.39,3a3.18,3.18,0,0,0-.85,0A.55.55,0,0,0,115.39,114.23Z"/><path class="cls-9" d="M126.78,84.33s8.7,16.49,10.08,20.26a35.92,35.92,0,0,1,1.89,7.21c0,.46.61.91,2.2.91a1.52,1.52,0,0,0,1.42-.65.93.93,0,0,0,0-.9c-.5-1-2.1-4.27-2.69-5.75-.71-1.76-2.23-9.75-3.06-12.52s-1.77-5.79-5.4-8.56C131.26,84.33,128.77,81.89,126.78,84.33Z"/><path class="cls-10" d="M121.29,57.29c-2.24-9.5,3.44-14.88,3.44-14.88-3.59-3.44-10.12-5-10.12-5s-6.23,4.56-5.49,8.13c.43,2.09,4.38,12.52,4.38,12.52A8.66,8.66,0,0,0,121.29,57.29Z"/><path class="cls-11" d="M126.26,62c-.91-2.75-5-4.71-5-4.71a8.66,8.66,0,0,1-7.79.76,15.68,15.68,0,0,0-.26,6c.57,2.91,4.12,21.6,4.12,21.6,5.58,1.14,14.18-1.13,14.18-1.13C128,78.24,127.18,64.75,126.26,62Z"/><path class="cls-12" d="M118.69,31.12l1.82,8.19c.18.73-.48.61-1.21.47-1.2-.23-2.74-.69-3.25-1.62a.8.8,0,0,1-.09-.31l-.79-5.68a1,1,0,0,1,.6-1.07l1.51-.67A1,1,0,0,1,118.69,31.12Z"/><path class="cls-13" d="M116.55,23.32a8.08,8.08,0,0,0-3.63,4c-1.47,3.13-.37,4.57,1,4.76a6.45,6.45,0,0,0,5.62-1.84C121.72,28.25,119.35,22.24,116.55,23.32Z"/><path class="cls-14" d="M118.08,28.6S119.71,24,115.66,24l-1,.66s-1.48-2.53,1-3.74S121,20.69,122,24s1.21,5.48-.51,7.05-2.44-.21-2.44-.21.94-1.47.56-2.25-1.27.16-1.27.16Z"/><path class="cls-15" d="M118.53,29.11s.82-2.35,1.92-1.42-.89,2.18-1.67,2.58Z"/><path class="cls-16" d="M100.94,18.77c-.12.27.85.79,1.55-.29.08-.53.64-2.82.36-3.3-1.49-2.52-3.3-2.85-3.3-2.85a8,8,0,0,0-1.13,1.77,2.32,2.32,0,0,0,.06,1.7,19.69,19.69,0,0,0,.87,1.8A2.27,2.27,0,0,0,100.94,18.77Z"/><path class="cls-17" d="M125.74,44.94s-16.68,20.37-29.15-2.82a2.88,2.88,0,0,1-.09-1.45,13.32,13.32,0,0,0-.37-2.75.43.43,0,0,1,.39-.51h0a.59.59,0,0,1,.52.22l2.27,2.9A1.21,1.21,0,0,1,98.67,42h0a.61.61,0,0,0-.22.91c9.48,12.42,25.33-1.21,25.62-1.05C125.1,42.4,126.29,43,125.74,44.94Z"/><path class="cls-18" d="M115.75,177.13a.61.61,0,0,0,.66-.52v-61.7a.6.6,0,0,0-.66-.52.59.59,0,0,0-.65.52v61.7A.6.6,0,0,0,115.75,177.13Z"/><path class="cls-19" d="M133.46,177.13a.6.6,0,0,0,.65-.52v-61.7a.59.59,0,0,0-.65-.52.6.6,0,0,0-.66.52v61.7A.61.61,0,0,0,133.46,177.13Z"/><path class="cls-20" d="M177,177.52a1.09,1.09,0,0,0,.25,0,.49.49,0,0,0,.35-.68l-33.41-62.1a.74.74,0,0,0-.86-.27.48.48,0,0,0-.34.68l33.4,62.09A.69.69,0,0,0,177,177.52Z"/><path class="cls-21" d="M156.32,177.52a1.09,1.09,0,0,0,.25,0c.34-.12.49-.42.35-.68l-33.41-62.1a.73.73,0,0,0-.86-.27.49.49,0,0,0-.34.68l33.41,62.09A.67.67,0,0,0,156.32,177.52Z"/><path class="cls-22" d="M114.74,115.47h30.6a.84.84,0,0,0,.92-.72h0a.84.84,0,0,0-.92-.73h-30.6a.84.84,0,0,0-.92.73h0A.84.84,0,0,0,114.74,115.47Z"/><path class="cls-23" d="M128,124.92h20.7a.59.59,0,0,0,.65-.52.6.6,0,0,0-.65-.52H128a.61.61,0,0,0-.66.52A.6.6,0,0,0,128,124.92Z"/><rect class="cls-24" x="134.31" y="135.63" width="20.7" height="1.03"/><rect class="cls-25" x="140.46" y="147.37" width="20.7" height="1.03"/><path class="cls-26" d="M146.9,160.15h20.7a.53.53,0,1,0,0-1H146.9a.53.53,0,1,0,0,1Z"/><path class="cls-27" d="M153.14,171.89h20.69a.53.53,0,1,0,0-1H153.14a.53.53,0,1,0,0,1Z"/><path class="cls-28" d="M54.68,176.55c-2.07-1.8-6.5-3.24-6.5-3.24l-2.67.06a6.66,6.66,0,0,0-1.12,3.16,7.14,7.14,0,0,0,3.17.65A26.51,26.51,0,0,0,54.68,176.55Z"/><path class="cls-29" d="M54.68,176.55a26.51,26.51,0,0,1-7.12.63,7.14,7.14,0,0,1-3.17-.65q0,.12,0,.21a.8.8,0,0,0,.56.85c2.43.75,7.8.51,9.89.38a.55.55,0,0,0,.39-.9A4.25,4.25,0,0,0,54.68,176.55Z"/><path class="cls-30" d="M46.76,171.06l-1,2.12a.87.87,0,0,0,.69.85,3.37,3.37,0,0,0,1.49,0,.83.83,0,0,0,.62-.71l1.3-2.28Z"/><path class="cls-31" d="M2.64,171.46c-.78-1.73-.56-2.51-2.1-2.34a2.28,2.28,0,0,0-.46.1,1.33,1.33,0,0,0,0,.9,14.28,14.28,0,0,0,2.17,5.18,1.73,1.73,0,0,0,1.3.63l1.7,0C3.64,174.67,3.28,172.89,2.64,171.46Z"/><path class="cls-32" d="M5.35,173.39c-1.3-.91-1.27-4.92-1.27-4.92l-2-1-1.52,1.1a1.33,1.33,0,0,0-.48.67,2.28,2.28,0,0,1,.46-.1c1.54-.17,1.32.61,2.1,2.34.64,1.43,1,3.21,2.61,4.5l1.16,0a.63.63,0,0,0,.51-1A7.56,7.56,0,0,0,5.35,173.39Z"/><path class="cls-33" d="M4.09,165.57l-2.24,1.88a.56.56,0,0,0,.12.73,1.78,1.78,0,0,0,1.89.29l2.46-1.33Z"/><path class="cls-34" d="M2.61,166.5l1.84,1.37a1.16,1.16,0,0,0,1.23.06c3.05-2.2,32-15.51,37.74-17.58L39,141.15S1.83,165.79,2.61,166.5Z"/><path class="cls-35" d="M61.41,148.64c-3.41-1.83-12.92-3.42-12.92-3.42l-11.06-3s-3,9.06,2.28,10.69,13,.87,16.24.44c0,0-4.31,3.09-9.47,18.1a17.79,17.79,0,0,1,3.15.36s11.52-14.34,12.73-18C63.15,151.35,64.27,150.17,61.41,148.64Z"/><path class="cls-36" d="M68,118.77c-2.39-.17-9.66,1.41-9.66,1.41l3.73,3.07s2.95-.72,4.91-1.1C67,122.15,71.85,119,68,118.77Z"/><path class="cls-37" d="M76.58,120.94s-3.21,3-5.15,3.78-3.09,1.69-4.3-.46A5.19,5.19,0,0,1,68,118s2.47-2.71,3.85-2.78S76.58,120.94,76.58,120.94Z"/><path class="cls-38" d="M69.7,118.3l.1.29s2-2,2.84-1.15,3.11,4.76,4.9,5.14A2.91,2.91,0,0,0,81,120.19a.16.16,0,0,0-.14-.17l-.22,0a.17.17,0,0,1-.07-.3.16.16,0,0,0,0-.29c-.54-.12-1.52-.62-2.59-2.48-1.52-2.66-3.33-4.13-5.3-3.48a.17.17,0,0,1-.22-.2c.06-.25,0-.61-.53-.93-.93-.54-2.52.37-3.31,2.57a.18.18,0,0,1-.26.08c-.31-.24-1-.53-1.17.88a3.42,3.42,0,0,0,.27,2.4.15.15,0,0,0,.2.06l1.7-.71a.16.16,0,0,1,.22.09Z"/><path class="cls-39" d="M69.36,118.5s2.2-1.47,1.14-2.32-2.51,1.51-2.3,2.42Z"/><path class="cls-40" d="M89.37,127.91s1.81.64,2.14-.43-.6-3.94,0-4.33,1.61-2.37,1.29-3.28l-.74.71s.5-1.66,0-2.37l-1.4,3.6S88.75,126.09,89.37,127.91Z"/><path class="cls-41" d="M56.77,120.76s3.22-3.54,10.25,2c4.84,3.82,22.3,3,22.3,3a8.61,8.61,0,0,0,.33,2.19S75,131.94,64,129.25c0,0-12.15,13.77-13.09,16.47,0,0-7.9,1.18-13.49-3.49a31.11,31.11,0,0,1,6.36-10.06A75.91,75.91,0,0,1,56.77,120.76Z"/><path class="cls-42" d="M58.46,127.86a.11.11,0,0,1-.07-.15.12.12,0,0,1,.15-.08s4.18,1.18,4.83,1.34a.11.11,0,0,1,.09.14.11.11,0,0,1-.15.09c-.65-.16-4.8-1.32-4.84-1.34Z"/></g></g></svg>